<svg xmlns="http://www.w3.org/2000/svg" viewBox="0 0 24 24" fill="#10b981">
  <path fill-rule="evenodd" d="M5.166 2.621v.858c-1.035.148-2.059.33-3.071.543a.75.75 0 0 0-.584.859 6.753 6.753 0 0 0 6.138 5.6 6.73 6.73 0 0 0 2.743 1.346A6.23 6.23 0 0 1 9.28 13.5H9a3.75 3.75 0 0 0-3.75 3.75v.008c0 .414.336.75.75.75h12a.75.75 0 0 0 .75-.75v-.008A3.75 3.75 0 0 0 15 13.5h-.28a6.23 6.23 0 0 1-1.192-1.773 6.73 6.73 0 0 0 2.743-1.346 6.753 6.753 0 0 0 6.138-5.6.75.75 0 0 0-.584-.858 47.077 47.077 0 0 0-3.07-.543V2.62a.75.75 0 0 0-.658-.744 49.798 49.798 0 0 0-6.093-.377c-2.063 0-4.096.128-6.093.377a.75.75 0 0 0-.657.744Zm0 2.629c0 1.196.312 2.32.857 3.294A5.266 5.266 0 0 1 3.16 5.337a45.6 45.6 0 0 1 2.006-.343v.256Zm13.5 0v-.256c.674.1 1.343.214 2.006.343a5.265 5.265 0 0 1-2.863 3.207 6.72 6.72 0 0 0 .857-3.294ZM12 17.25a1.5 1.5 0 1 1 0-3 1.5 1.5 0 0 1 0 3Z" clip-rule="evenodd" />
</svg>


